<svg viewBox="603.7250000000001 389.6428571428571 350.5500000000003 311.71428571428584" fill="none"
    xmlns="http://www.w3.org/2000/svg" xmlns:xlink="http://www.w3.org/1999/xlink" overflow="visible"
    width="350.5500000000003px" height="311.71428571428584px">
    <g id="Master/Stickers/Books">
        <g id="Books">
            <path id="Fill 28" fill-rule="evenodd" clip-rule="evenodd"
                d="M926.721 701.981H625.816C619.843 701.981 615 697.138 615 691.166V631.618C615 625.645 619.843 620.802 625.816 620.802H926.721C932.695 620.802 937.537 625.645 937.537 631.618V691.166C937.537 697.138 932.695 701.981 926.721 701.981"
                fill="#DF9CBC" />
            <path id="Fill 29" fill-rule="evenodd" clip-rule="evenodd"
                d="M931.749 621.28H652.508C646.502 621.28 641.633 616.412 641.633 610.406V594.369C641.633 588.363 646.502 583.494 652.508 583.494H931.749C937.755 583.494 942.624 588.363 942.624 594.369V610.406C942.624 616.412 937.755 621.28 931.749 621.28"
                fill="#ecafa3" />
            <path id="Fill 30" fill-rule="evenodd" clip-rule="evenodd"
                d="M915.138 546.18H642.649C634.778 546.18 628.398 539.8 628.398 531.93V495.544C628.398 487.673 634.778 481.293 642.649 481.293H915.138C923.009 481.293 929.388 487.673 929.388 495.544V531.93C929.388 539.8 923.009 546.18 915.138 546.18"
                fill="#ecafa3" />
            <path id="Fill 31" fill-rule="evenodd" clip-rule="evenodd"
                d="M923.467 430.384H644.962C638.753 430.384 633.719 425.351 633.719 419.142V401.242C633.719 395.033 638.753 390 644.962 390H923.467C929.676 390 934.71 395.033 934.71 401.242V419.142C934.71 425.351 929.676 430.384 923.467 430.384"
                fill="#ecafa3" />
            <path id="Fill 32" fill-rule="evenodd" clip-rule="evenodd"
                d="M905.276 583.956H626.035C620.029 583.956 615.16 579.088 615.16 573.081V557.045C615.16 551.039 620.029 546.17 626.035 546.17H905.276C911.282 546.17 916.151 551.039 916.151 557.045V573.081C916.151 579.088 911.282 583.956 905.276 583.956"
                fill="#DF9CBC" />
            <path id="Fill 33" fill-rule="evenodd" clip-rule="evenodd"
                d="M912.54 481.798H636.881C629.886 481.798 624.215 476.127 624.215 469.132V443.206C624.215 436.211 629.886 430.54 636.881 430.54H912.54C919.535 430.54 925.206 436.211 925.206 443.206V469.132C925.206 476.127 919.535 481.798 912.54 481.798"
                fill="#DF9CBC" />
        </g>
    </g>
</svg>