<svg viewBox="1087.5 379.6992481203006 825.0000000000007 1654.1353383458645" xmlns="http://www.w3.org/2000/svg" overflow="visible" xmlns:xlink="http://www.w3.org/1999/xlink" width="825.0000000000007px" height="1654.1353383458645px"><g id="Master/Stickers/Bookshelf" stroke="none" stroke-width="1" fill="none" fill-rule="evenodd"><g id="Group" transform="translate(1100.000000, 400.000000)"><rect id="Rectangle" fill="#E7D6A0" x="0" y="0" width="800" height="1600"/><rect id="Rectangle" fill="#CCB465" x="50" y="50" width="700" height="400" rx="20"/><rect id="Rectangle-Copy" fill="#CCB465" x="50" y="500" width="700" height="400" rx="20"/><rect id="Rectangle-Copy-2" fill="#CCB465" x="50" y="950" width="700" height="600" rx="20"/><path d="M504,1366 L504,1370 C504,1394.30053 484.300529,1414 460,1414 L460,1414 L340,1414 C315.699471,1414 296,1394.30053 296,1370 L296,1370 L296,1366 L504,1366 Z M495.779,1374 L304.22,1374 L304.232694,1374.1157 C306.252971,1391.86681 321.183407,1405.69975 339.404674,1405.99518 L339.404674,1405.99518 L340,1406 L460,1406 C478.490493,1406 493.725069,1392.05976 495.767306,1374.1157 L495.767306,1374.1157 L495.779,1374 Z M704,1246 L704,1254 L96,1254 L96,1246 L704,1246 Z M504,1086 L504,1090 C504,1114.30053 484.300529,1134 460,1134 L460,1134 L340,1134 C315.699471,1134 296,1114.30053 296,1090 L296,1090 L296,1086 L504,1086 Z M495.779,1094 L304.22,1094 L304.232694,1094.1157 C306.252971,1111.86681 321.183407,1125.69975 339.404674,1125.99518 L339.404674,1125.99518 L340,1126 L460,1126 C478.490493,1126 493.725069,1112.05976 495.767306,1094.1157 L495.767306,1094.1157 L495.779,1094 Z" id="Combined-Shape" fill="#000" fill-rule="nonzero"/><g id="Book" transform="translate(70.000000, 70.000000)"><rect id="Rectangle" fill="#5C9970" x="0" y="0" width="100" height="360" rx="10"/><rect id="Rectangle" fill="#FFF" x="20" y="20" width="60" height="120"/><path d="M80,260 L80,340 L20,340 L20,260 L80,260 Z M72,268 L28,268 L28,332 L72,332 L72,268 Z" id="Rectangle-Copy-3" fill="#000" fill-rule="nonzero"/><rect id="Rectangle-Copy-4" fill="#000" x="30" y="30" width="60" height="8"/><rect id="Rectangle-Copy-6" fill="#000" x="30" y="86" width="60" height="8"/><rect id="Rectangle-Copy-7" fill="#000" x="30" y="58" width="60" height="8"/><rect id="Rectangle-Copy-5" fill="#000" x="30" y="114" width="40" height="8"/></g><g id="Book-Copy" transform="translate(190.000000, 70.000000)"><rect id="Rectangle" fill="#5C9970" x="0" y="0" width="100" height="360" rx="10"/><rect id="Rectangle" fill="#FFF" x="20" y="20" width="60" height="120"/><path d="M80,260 L80,340 L20,340 L20,260 L80,260 Z M72,268 L28,268 L28,332 L72,332 L72,268 Z" id="Rectangle-Copy-3" fill="#000" fill-rule="nonzero"/><rect id="Rectangle-Copy-4" fill="#000" x="30" y="30" width="60" height="8"/><rect id="Rectangle-Copy-6" fill="#000" x="30" y="86" width="60" height="8"/><rect id="Rectangle-Copy-7" fill="#000" x="30" y="58" width="60" height="8"/><rect id="Rectangle-Copy-5" fill="#000" x="30" y="114" width="40" height="8"/></g><g id="Book-Copy-2" transform="translate(310.000000, 70.000000)"><rect id="Rectangle" fill="#5C9970" x="0" y="0" width="100" height="360" rx="10"/><rect id="Rectangle" fill="#FFF" x="20" y="20" width="60" height="120"/><path d="M80,260 L80,340 L20,340 L20,260 L80,260 Z M72,268 L28,268 L28,332 L72,332 L72,268 Z" id="Rectangle-Copy-3" fill="#000" fill-rule="nonzero"/><rect id="Rectangle-Copy-4" fill="#000" x="30" y="30" width="60" height="8"/><rect id="Rectangle-Copy-6" fill="#000" x="30" y="86" width="60" height="8"/><rect id="Rectangle-Copy-7" fill="#000" x="30" y="58" width="60" height="8"/><rect id="Rectangle-Copy-5" fill="#000" x="30" y="114" width="40" height="8"/></g><g id="Book-Copy-3" transform="translate(430.000000, 70.000000)"><rect id="Rectangle" fill="#5C9970" x="0" y="0" width="100" height="360" rx="10"/><rect id="Rectangle" fill="#FFF" x="20" y="20" width="60" height="120"/><path d="M80,260 L80,340 L20,340 L20,260 L80,260 Z M72,268 L28,268 L28,332 L72,332 L72,268 Z" id="Rectangle-Copy-3" fill="#000" fill-rule="nonzero"/><rect id="Rectangle-Copy-4" fill="#000" x="30" y="30" width="60" height="8"/><rect id="Rectangle-Copy-6" fill="#000" x="30" y="86" width="60" height="8"/><rect id="Rectangle-Copy-7" fill="#000" x="30" y="58" width="60" height="8"/><rect id="Rectangle-Copy-5" fill="#000" x="30" y="114" width="40" height="8"/></g><g id="Book-Copy-4" transform="translate(550.000000, 526.245679)"><rect id="Rectangle" fill="#A04687" x="0" y="0" width="100" height="360" rx="10"/><rect id="Rectangle" fill="#FFF" x="20" y="20" width="60" height="120"/><path d="M80,260 L80,340 L20,340 L20,260 L80,260 Z M72,268 L28,268 L28,332 L72,332 L72,268 Z" id="Rectangle-Copy-3" fill="#000" fill-rule="nonzero"/><rect id="Rectangle-Copy-4" fill="#000" x="30" y="30" width="60" height="8"/><rect id="Rectangle-Copy-6" fill="#000" x="30" y="86" width="60" height="8"/><rect id="Rectangle-Copy-7" fill="#000" x="30" y="58" width="60" height="8"/><rect id="Rectangle-Copy-5" fill="#000" x="30" y="114" width="40" height="8"/></g><g id="Book-Copy-5" transform="translate(630.000000, 256.245679) rotate(-20.000000) translate(-630.000000, -256.245679) translate(580.000000, 76.245679)"><rect id="Rectangle" fill="#A04687" x="0" y="0" width="100" height="360" rx="10"/><rect id="Rectangle" fill="#FFF" x="20" y="20" width="60" height="120"/><path d="M80,260 L80,340 L20,340 L20,260 L80,260 Z M72,268 L28,268 L28,332 L72,332 L72,268 Z" id="Rectangle-Copy-3" fill="#000" fill-rule="nonzero"/><rect id="Rectangle-Copy-4" fill="#000" x="30" y="30" width="60" height="8"/><rect id="Rectangle-Copy-6" fill="#000" x="30" y="86" width="60" height="8"/><rect id="Rectangle-Copy-7" fill="#000" x="30" y="58" width="60" height="8"/><rect id="Rectangle-Copy-5" fill="#000" x="30" y="114" width="40" height="8"/></g><g id="Book-Copy-6" transform="translate(430.000000, 520.000000)"><rect id="Rectangle" fill="#406080" x="0" y="0" width="100" height="360" rx="10"/><rect id="Rectangle" fill="#FFF" x="20" y="20" width="60" height="120"/><path d="M80,260 L80,340 L20,340 L20,260 L80,260 Z M72,268 L28,268 L28,332 L72,332 L72,268 Z" id="Rectangle-Copy-3" fill="#000" fill-rule="nonzero"/><rect id="Rectangle-Copy-4" fill="#000" x="30" y="30" width="60" height="8"/><rect id="Rectangle-Copy-6" fill="#000" x="30" y="86" width="60" height="8"/><rect id="Rectangle-Copy-7" fill="#000" x="30" y="58" width="60" height="8"/><rect id="Rectangle-Copy-5" fill="#000" x="30" y="114" width="40" height="8"/></g><g id="Book-Copy-7" transform="translate(310.000000, 520.000000)"><rect id="Rectangle" fill="#A04687" x="0" y="0" width="100" height="360" rx="10"/><rect id="Rectangle" fill="#FFF" x="20" y="20" width="60" height="120"/><path d="M80,260 L80,340 L20,340 L20,260 L80,260 Z M72,268 L28,268 L28,332 L72,332 L72,268 Z" id="Rectangle-Copy-3" fill="#000" fill-rule="nonzero"/><rect id="Rectangle-Copy-4" fill="#000" x="30" y="30" width="60" height="8"/><rect id="Rectangle-Copy-6" fill="#000" x="30" y="86" width="60" height="8"/><rect id="Rectangle-Copy-7" fill="#000" x="30" y="58" width="60" height="8"/><rect id="Rectangle-Copy-5" fill="#000" x="30" y="114" width="40" height="8"/></g><g id="Book-Copy-8" transform="translate(190.000000, 520.000000)"><rect id="Rectangle" fill="#406080" x="0" y="0" width="100" height="360" rx="10"/><rect id="Rectangle" fill="#FFF" x="20" y="20" width="60" height="120"/><path d="M80,260 L80,340 L20,340 L20,260 L80,260 Z M72,268 L28,268 L28,332 L72,332 L72,268 Z" id="Rectangle-Copy-3" fill="#000" fill-rule="nonzero"/><rect id="Rectangle-Copy-4" fill="#000" x="30" y="30" width="60" height="8"/><rect id="Rectangle-Copy-6" fill="#000" x="30" y="86" width="60" height="8"/><rect id="Rectangle-Copy-7" fill="#000" x="30" y="58" width="60" height="8"/><rect id="Rectangle-Copy-5" fill="#000" x="30" y="114" width="40" height="8"/></g><g id="Book-Copy-9" transform="translate(70.000000, 520.000000)"><rect id="Rectangle" fill="#406080" x="0" y="0" width="100" height="360" rx="10"/><rect id="Rectangle" fill="#FFF" x="20" y="20" width="60" height="120"/><path d="M80,260 L80,340 L20,340 L20,260 L80,260 Z M72,268 L28,268 L28,332 L72,332 L72,268 Z" id="Rectangle-Copy-3" fill="#000" fill-rule="nonzero"/><rect id="Rectangle-Copy-4" fill="#000" x="30" y="30" width="60" height="8"/><rect id="Rectangle-Copy-6" fill="#000" x="30" y="86" width="60" height="8"/><rect id="Rectangle-Copy-7" fill="#000" x="30" y="58" width="60" height="8"/><rect id="Rectangle-Copy-5" fill="#000" x="30" y="114" width="40" height="8"/></g></g></g></svg>