<svg viewBox="206.25 213.125 130.62499999999997 123.75000000000011" fill="none" xmlns="http://www.w3.org/2000/svg" xmlns:xlink="http://www.w3.org/1999/xlink" overflow="visible" width="130.62499999999997px" height="123.75000000000011px"><g id="Master/New Stickers/Sticky Notes"><g id="Blush/Stickers/Sticky Notes"><g id="Group 22"><path id="Fill 1" fill-rule="evenodd" clip-rule="evenodd" d="M324.98 319.211L238.913 333.36C236.902 333.691 234.983 332.322 234.649 330.32L219.569 239.699C219.235 237.694 220.608 235.786 222.619 235.456L308.689 221.304C310.699 220.973 312.616 222.342 312.95 224.348L328.03 314.966C328.364 316.97 326.991 318.88 324.98 319.211" fill="#FF85A9"/><path id="Fill 3" fill-rule="evenodd" clip-rule="evenodd" d="M324.126 317.76L240.129 331.478C238.117 331.806 236.197 330.442 235.864 328.444L220.737 238.149C220.403 236.152 221.776 234.25 223.786 233.92L307.783 220.203C309.794 219.875 311.714 221.24 312.049 223.237L327.175 313.532C327.51 315.529 326.137 317.431 324.126 317.76" fill="#FFD344"/><path id="Fill 5" fill-rule="evenodd" clip-rule="evenodd" d="M244.755 331.932C242.75 332.326 240.79 331.001 240.4 328.99L222.782 238.103C222.392 236.094 223.715 234.127 225.72 233.737L309.44 217.391C311.445 217.001 313.405 218.324 313.793 220.333L331.41 311.223C331.8 313.232 330.478 315.196 328.474 315.588L244.755 331.932Z" fill="#CEB6FF"/><path id="Stroke 7" fill-rule="evenodd" clip-rule="evenodd" d="M328.474 315.588L244.755 331.932C242.75 332.326 240.79 331.001 240.4 328.99L222.782 238.103C222.392 236.094 223.715 234.127 225.72 233.737L309.44 217.391C311.445 217.001 313.405 218.324 313.793 220.333L331.41 311.223C331.8 313.232 330.478 315.196 328.474 315.588Z" stroke="#C9B5FF" stroke-width="0.5"/><path id="Fill 9" fill-rule="evenodd" clip-rule="evenodd" d="M254.188 224.679C256.092 224.188 283.106 221.254 283.106 221.254L280.845 224.488L283.101 226.946L253.804 231.74L256.335 227.764L254.188 224.679Z" fill="#FFD344"/><path id="Fill 11" fill-rule="evenodd" clip-rule="evenodd" d="M272.562 222.595C271.823 224.34 270.58 227.277 269.814 229.152L274.397 228.263L277.612 221.927C276.161 222.118 274.415 222.347 272.562 222.595" fill="#FC08B2"/><path id="Fill 13" fill-rule="evenodd" clip-rule="evenodd" d="M262.682 223.587C261.648 225.809 260.023 229.321 259.345 230.877L263.792 230.168L267.667 223.083C265.94 223.253 264.23 223.424 262.682 223.587" fill="#FC08B2"/><g id="Group 17"><mask id="mask04618a22e-1f5e-4a42-8d52-07458b397406" mask-type="alpha" maskUnits="userSpaceOnUse" x="331" y="310" width="7" height="10"><path id="Clip 16" fill-rule="evenodd" clip-rule="evenodd" d="M332.086 310.144L337.996 310.765L337.089 319.394L331.179 318.773L332.086 310.144Z" fill="white"/></mask><g mask="url(#mask04618a22e-1f5e-4a42-8d52-07458b397406)"><path id="Fill 15" fill-rule="evenodd" clip-rule="evenodd" d="M337.428 315.374C336.912 315.838 335.898 316.37 334.822 318.403C334.726 318.585 334.625 318.767 334.501 318.931C334.329 319.16 334.022 319.138 333.884 318.881C333.568 318.302 333.651 317.449 332.562 315.828C331.925 314.876 331.232 314.517 331.919 314.072C333.632 312.964 334.404 311.082 334.75 310.603C334.9 310.394 335.191 310.412 335.326 310.626C335.471 310.858 335.527 311.122 335.6 311.381C336.133 313.293 337.073 314.253 337.449 314.71C337.544 314.823 337.606 315.213 337.428 315.374" fill="#FFCF00"/></g></g><path id="Fill 18" fill-rule="evenodd" clip-rule="evenodd" d="M219.326 230.966C218.985 231.613 218.166 232.586 217.87 234.76C217.844 234.953 217.814 235.152 217.752 235.347C217.667 235.62 217.348 235.774 217.107 235.653C216.558 235.378 216.307 234.674 214.566 234.026C213.542 233.646 212.698 233.753 213.221 233.028C214.525 231.216 214.569 229.332 214.732 228.768C214.802 228.526 215.105 228.375 215.326 228.467C215.565 228.565 215.725 228.739 215.899 228.899C217.194 230.082 218.531 230.3 219.086 230.442C219.226 230.479 219.445 230.743 219.326 230.966" fill="#FFCF00"/><path id="Fill 20" fill-rule="evenodd" clip-rule="evenodd" d="M217.267 241.085C217.008 241.696 216.36 242.598 216.219 244.713C216.206 244.902 216.191 245.093 216.148 245.283C216.09 245.544 215.825 245.675 215.613 245.539C215.131 245.234 214.881 244.524 213.363 243.772C212.471 243.332 211.758 243.379 212.167 242.7C213.185 241.009 213.128 239.162 213.237 238.619C213.285 238.384 213.537 238.258 213.729 238.364C213.936 238.475 214.083 238.655 214.241 238.824C215.406 240.073 216.555 240.376 217.037 240.554C217.157 240.599 217.355 240.874 217.267 241.085" fill="#FFCF00"/></g></g></g></svg>