<svg viewBox="448.875 410.52631578947376 128.2500000000001 153.94736842105257" fill="none" xmlns="http://www.w3.org/2000/svg" xmlns:xlink="http://www.w3.org/1999/xlink" overflow="visible" width="128.2500000000001px" height="153.94736842105257px"><g id="Master/Stickers/Clock"><g id="Group 2"><g id="Group"><g id="Group_2"><path id="Shape" fill-rule="evenodd" clip-rule="evenodd" d="M495.596 441.502C497.362 440.927 499.145 440.454 500.919 440.065C529.277 433.821 558.268 450.062 567.377 478.25C577.052 508.222 560.6 540.356 530.629 550.031C500.657 559.706 468.523 543.255 458.848 513.283C449.747 485.086 463.774 454.962 490.433 443.454C492.115 442.727 493.83 442.076 495.596 441.502ZM468.481 510.174C476.508 535.041 502.998 548.755 527.646 540.796C552.294 532.844 565.772 506.228 557.736 481.36C549.709 456.5 523.21 442.786 498.57 450.738C473.931 458.689 460.453 485.314 468.481 510.174Z" fill="#FFC2DF"/><ellipse id="Oval" cx="512.849" cy="495.742" rx="46.8945" ry="47.317" transform="rotate(-17.8914 512.849 495.742)" fill="#FFC2DF"/></g><path id="Path" d="M508.042 423.69C508.583 425.363 508.397 427.095 507.653 428.54C506.901 429.993 505.609 431.151 503.936 431.692L498.747 433.365L500.911 440.074C499.136 440.463 497.353 440.936 495.587 441.51C493.821 442.085 492.106 442.736 490.424 443.462L488.261 436.753L483.073 438.426C479.727 439.508 476.144 437.674 475.063 434.336C473.981 430.99 475.815 427.408 479.161 426.326L500.023 419.591C503.378 418.51 506.961 420.343 508.042 423.69Z" fill="#FFC2DF"/><ellipse id="Oval_2" cx="512.849" cy="495.742" rx="46.8945" ry="47.317" transform="rotate(-17.8914 512.849 495.742)" fill="white"/><circle id="Oval_3" cx="513.112" cy="495.767" r="8.47517" fill="black"/><g id="Group_3"><path id="Path (Stroke)" fill-rule="evenodd" clip-rule="evenodd" d="M501.011 455.047C502.684 460.413 504.349 465.779 506.014 471.144L505.059 471.441C503.394 466.075 501.73 460.71 500.057 455.345L501.011 455.047Z" fill="#FF5F69"/><path id="Path (Stroke)_2" fill-rule="evenodd" clip-rule="evenodd" d="M522.111 520.398C523.784 525.764 525.449 531.13 527.113 536.495L526.158 536.792C524.494 531.426 522.829 526.061 521.156 520.695L522.111 520.398Z" fill="#FF5F69"/></g><g id="Group_4"><path id="Path (Stroke)_3" fill-rule="evenodd" clip-rule="evenodd" d="M500.759 455.092C501.286 454.928 501.847 455.222 502.012 455.749C503.685 461.116 505.35 466.482 507.014 471.848C507.178 472.375 506.883 472.935 506.356 473.099C505.828 473.263 505.268 472.968 505.104 472.44C503.439 467.075 501.775 461.71 500.102 456.345C499.938 455.818 500.232 455.257 500.759 455.092Z" fill="black"/><path id="Path (Stroke)_4" fill-rule="evenodd" clip-rule="evenodd" d="M521.859 520.443C522.386 520.279 522.947 520.573 523.111 521.1C524.784 526.467 526.449 531.833 528.114 537.199C528.278 537.726 527.983 538.286 527.455 538.45C526.928 538.614 526.367 538.319 526.204 537.791C524.539 532.425 522.875 527.06 521.202 521.696C521.037 521.168 521.332 520.608 521.859 520.443Z" fill="black"/></g><g id="Group_5"><path id="Path (Stroke)_5" fill-rule="evenodd" clip-rule="evenodd" d="M555.797 483.415C555.961 483.942 555.667 484.503 555.139 484.667C549.765 486.34 544.398 488.005 539.033 489.669C538.505 489.833 537.945 489.538 537.782 489.011C537.618 488.483 537.913 487.923 538.44 487.759C543.806 486.094 549.171 484.43 554.545 482.757C555.072 482.593 555.633 482.887 555.797 483.415Z" fill="black"/><path id="Path (Stroke)_6" fill-rule="evenodd" clip-rule="evenodd" d="M490.437 504.514C490.601 505.041 490.307 505.601 489.78 505.766C484.413 507.439 479.047 509.104 473.681 510.769C473.154 510.932 472.594 510.637 472.43 510.11C472.266 509.582 472.561 509.022 473.089 508.858C478.454 507.194 483.819 505.529 489.184 503.857C489.712 503.692 490.272 503.986 490.437 504.514Z" fill="black"/></g><g id="Group_6"><path id="Path (Stroke)_7" fill-rule="evenodd" clip-rule="evenodd" d="M534.148 457.858C534.637 458.115 534.824 458.72 534.567 459.208C533.257 461.697 531.95 464.183 530.642 466.669L530.642 466.671C529.334 469.157 528.027 471.643 526.717 474.131C526.46 474.619 525.855 474.807 525.366 474.55C524.878 474.293 524.69 473.688 524.947 473.199C526.257 470.711 527.564 468.225 528.872 465.738L528.873 465.736C530.18 463.251 531.488 460.765 532.797 458.277C533.054 457.788 533.659 457.6 534.148 457.858Z" fill="black"/><path id="Path (Stroke)_8" fill-rule="evenodd" clip-rule="evenodd" d="M502.859 518.984C503.348 519.241 503.535 519.846 503.278 520.334C501.968 522.823 500.661 525.309 499.353 527.795L499.352 527.797C498.045 530.283 496.738 532.769 495.428 535.257C495.171 535.745 494.566 535.933 494.077 535.676C493.589 535.419 493.401 534.814 493.658 534.325C494.968 531.837 496.275 529.351 497.583 526.864L497.584 526.862C498.891 524.377 500.199 521.891 501.508 519.403C501.765 518.914 502.37 518.726 502.859 518.984Z" fill="black"/></g><g id="Group_7"><path id="Path (Stroke)_9" fill-rule="evenodd" clip-rule="evenodd" d="M536.33 508.021C536.587 507.532 537.192 507.345 537.681 507.602C540.169 508.911 542.655 510.219 545.142 511.527L545.148 511.53C547.633 512.836 550.117 514.143 552.603 515.452C553.092 515.709 553.28 516.314 553.022 516.802C552.765 517.291 552.16 517.479 551.672 517.221C549.183 515.912 546.697 514.604 544.211 513.297C541.724 511.989 539.238 510.681 536.749 509.372C536.261 509.114 536.073 508.51 536.33 508.021Z" fill="black"/><path id="Path (Stroke)_10" fill-rule="evenodd" clip-rule="evenodd" d="M475.203 476.731C475.46 476.243 476.065 476.055 476.554 476.312C479.042 477.622 481.528 478.929 484.015 480.237L484.021 480.24C486.506 481.547 488.99 482.853 491.476 484.162C491.965 484.419 492.153 485.024 491.895 485.513C491.638 486.001 491.033 486.189 490.545 485.932C488.056 484.622 485.57 483.315 483.084 482.007C480.597 480.699 478.111 479.392 475.622 478.082C475.134 477.825 474.946 477.22 475.203 476.731Z" fill="black"/></g><g id="Group_8"><path id="Shape_2" fill-rule="evenodd" clip-rule="evenodd" d="M495.596 441.502C497.362 440.927 499.145 440.454 500.919 440.065C529.277 433.821 558.268 450.062 567.377 478.25C577.052 508.222 560.6 540.356 530.629 550.031C500.657 559.706 468.523 543.255 458.848 513.283C449.747 485.086 463.774 454.962 490.433 443.454C492.115 442.727 493.83 442.076 495.596 441.502ZM468.481 510.174C476.508 535.041 502.998 548.755 527.646 540.796C552.294 532.844 565.772 506.228 557.736 481.36C549.709 456.5 523.21 442.786 498.57 450.738C473.931 458.689 460.453 485.314 468.481 510.174Z" fill="#FFC2DF"/></g><path id="Path_2" d="M508.042 423.69C508.583 425.363 508.397 427.095 507.653 428.54C506.901 429.993 505.609 431.151 503.936 431.692L498.747 433.365L500.911 440.074C499.136 440.463 497.353 440.936 495.587 441.51C493.821 442.085 492.106 442.736 490.424 443.462L488.261 436.753L483.073 438.426C479.727 439.508 476.144 437.674 475.063 434.336C473.981 430.99 475.815 427.408 479.161 426.326L500.023 419.591C503.378 418.51 506.961 420.343 508.042 423.69Z" fill="#FFC2DF"/></g><circle id="Oval_4" cx="512.999" cy="495.284" r="44.2844" fill="#EDF2FF"/><g id="Group "><path id="Path " d="M508.762 455.793C509.27 455.72 509.743 456.042 509.872 456.526L509.895 456.64L512.047 471.533C512.126 472.079 511.747 472.586 511.201 472.665C510.693 472.739 510.22 472.417 510.091 471.933L510.068 471.819L507.915 456.926C507.836 456.38 508.216 455.872 508.762 455.793Z" fill="#303030"/><path id="Path  " d="M519.202 517.308C519.709 517.235 520.183 517.556 520.311 518.04L520.334 518.155L522.487 533.047C522.566 533.594 522.187 534.101 521.64 534.18C521.133 534.253 520.659 533.932 520.531 533.448L520.507 533.333L518.355 518.441C518.276 517.894 518.655 517.387 519.202 517.308Z" fill="#303030"/></g><g id="Group _2"><path id="Path _2" d="M544.162 467.206C544.513 467.58 544.521 468.153 544.198 468.535L544.118 468.62L533.153 478.925C532.751 479.303 532.118 479.284 531.74 478.881C531.388 478.508 531.38 477.935 531.703 477.553L531.783 477.468L542.748 467.163C543.151 466.784 543.783 466.804 544.162 467.206Z" fill="#303030"/><path id="Path  _2" d="M499.759 511.04C500.111 511.414 500.119 511.987 499.796 512.369L499.715 512.454L488.751 522.759C488.348 523.137 487.715 523.118 487.337 522.715C486.986 522.342 486.978 521.769 487.301 521.387L487.381 521.302L498.346 510.997C498.748 510.618 499.381 510.638 499.759 511.04Z" fill="#303030"/></g><g id="Group _3"><path id="Path _3" d="M555.346 501.362C555.259 501.868 554.806 502.219 554.306 502.191L554.19 502.178L539.362 499.623C538.817 499.529 538.452 499.012 538.546 498.468C538.633 497.962 539.085 497.611 539.585 497.639L539.701 497.652L554.53 500.207C555.074 500.301 555.439 500.818 555.346 501.362Z" fill="#303030"/><path id="Path  _3" d="M493.617 492.281C493.53 492.786 493.078 493.137 492.578 493.11L492.462 493.097L477.633 490.542C477.089 490.448 476.724 489.931 476.817 489.386C476.904 488.881 477.357 488.53 477.857 488.558L477.973 488.571L492.801 491.126C493.346 491.22 493.711 491.737 493.617 492.281Z" fill="#303030"/></g><circle id="Oval_5" cx="515.5" cy="495.5" r="6.03363" fill="#303030"/></g></g></svg>