<svg
    xmlns="http://www.w3.org/2000/svg"
    viewBox="0 0 308 262"
    width="308"
    height="262"
    preserveAspectRatio="xMidYMid meet"
    style="width: 100%; height: 100%; transform: translate3d(0px, 0px, 0px); content-visibility: visible;">
    <defs>
        <clipPath id="__lottie_element_2">
            <rect
                width="308"
                height="262"
                x="0" y="0"></rect>
        </clipPath>
    </defs>
    <g clip-path="url(#__lottie_element_2)">
        <g
            transform="matrix(0.20999999344348907,0,0,0.20999999344348907,207.18899536132812,40.44200134277344)"
            opacity="1" style="display: block;">
            <g opacity="1" transform="matrix(1,0,0,1,0,0)">
                <path fill="rgb(107,127,153)" fill-opacity="1"
                    d=" M0,-24.5 C13.531000137329102,-24.5 24.5,-13.531000137329102 24.5,0 C24.5,13.531000137329102 13.531000137329102,24.5 0,24.5 C-13.531000137329102,24.5 -24.5,13.531000137329102 -24.5,0 C-24.5,-13.531000137329102 -13.531000137329102,-24.5 0,-24.5z"></path>
            </g>
        </g>
        <g
            transform="matrix(0.10000000149011612,0,0,0.10000000149011612,244.43899536132812,122.69200134277344)"
            opacity="1" style="display: block;">
            <g opacity="1" transform="matrix(1,0,0,1,0,0)">
                <path fill="rgb(107,127,153)" fill-opacity="1"
                    d=" M0,-24.5 C13.531000137329102,-24.5 24.5,-13.531000137329102 24.5,0 C24.5,13.531000137329102 13.531000137329102,24.5 0,24.5 C-13.531000137329102,24.5 -24.5,13.531000137329102 -24.5,0 C-24.5,-13.531000137329102 -13.531000137329102,-24.5 0,-24.5z"></path>
            </g>
        </g>
        <g
            transform="matrix(0.15000000596046448,0,0,0.15000000596046448,82.93900299072266,133.44200134277344)"
            opacity="1" style="display: block;">
            <g opacity="1" transform="matrix(1,0,0,1,0,0)">
                <path fill="rgb(107,127,153)" fill-opacity="1"
                    d=" M0,-24.5 C13.531000137329102,-24.5 24.5,-13.531000137329102 24.5,0 C24.5,13.531000137329102 13.531000137329102,24.5 0,24.5 C-13.531000137329102,24.5 -24.5,13.531000137329102 -24.5,0 C-24.5,-13.531000137329102 -13.531000137329102,-24.5 0,-24.5z"></path>
            </g>
        </g>
        <g
            transform="matrix(0.20655259490013123,0,0,0.20655259490013123,93.43900299072266,163.02200317382812)"
            opacity="1" style="display: block;">
            <g opacity="1" transform="matrix(1,0,0,1,0,0)">
                <path fill="rgb(107,127,153)" fill-opacity="1"
                    d=" M0,-24.5 C13.531000137329102,-24.5 24.5,-13.531000137329102 24.5,0 C24.5,13.531000137329102 13.531000137329102,24.5 0,24.5 C-13.531000137329102,24.5 -24.5,13.531000137329102 -24.5,0 C-24.5,-13.531000137329102 -13.531000137329102,-24.5 0,-24.5z"></path>
            </g>
        </g>
        <g
            transform="matrix(0.20999999344348907,0,0,0.20999999344348907,266.7562255859375,161.37249755859375)"
            opacity="1" style="display: block;">
            <g opacity="1" transform="matrix(1,0,0,1,0,0)">
                <path stroke-linecap="butt" stroke-linejoin="miter" fill-opacity="0"
                    stroke-miterlimit="4" stroke="rgb(107,127,153)" stroke-opacity="1"
                    stroke-width="9"
                    d=" M0,-54.5 C30.099000930786133,-54.5 54.5,-30.100000381469727 54.5,0 C54.5,30.100000381469727 30.099000930786133,54.5 0,54.5 C-30.099000930786133,54.5 -54.5,30.100000381469727 -54.5,0 C-54.5,-30.100000381469727 -30.099000930786133,-54.5 0,-54.5z"></path>
            </g>
        </g>
        <g
            transform="matrix(0.2099132388830185,0.0060357870534062386,-0.0060357870534062386,0.2099132388830185,141.1726531982422,170.83534240722656)"
            opacity="1" style="display: block;">
            <g opacity="1" transform="matrix(1,0,0,1,0,0)">
                <path fill="rgb(130,82,221)" fill-opacity="1"
                    d=" M-322.8590087890625,28.98900032043457 C-328.718994140625,18.913000106811523 -346.0010070800781,16.98200035095215 -371.6159973144531,23.506999969482422 C-384.177001953125,13.406000137329102 -399.4949951171875,7.328000068664551 -415.5679931640625,6.067999839782715 C-431.6419982910156,4.808000087738037 -447.72100830078125,8.425000190734863 -461.7049865722656,16.44499969482422 C-475.68798828125,24.46500015258789 -486.92401123046875,36.51499938964844 -493.9429931640625,51.02000045776367 C-500.9630126953125,65.52400207519531 -503.43798828125,81.80799865722656 -501.0469970703125,97.74199676513672 C-519.6619873046875,116.61399841308594 -526.6790161132812,132.5449981689453 -520.7930297851562,142.65499877929688 C-517.197021484375,148.8419952392578 -509.4750061035156,151.9739990234375 -498.1570129394531,151.9739990234375 C-490.9169921875,151.843994140625 -483.7120056152344,150.93099975585938 -476.66900634765625,149.25100708007812 C-475.15399169921875,148.91099548339844 -473.60400390625,148.53700256347656 -472.0369873046875,148.13699340820312 C-460.2699890136719,157.60000610351562 -446.0660095214844,163.54600524902344 -431.06298828125,165.28799438476562 C-416.05999755859375,167.02999877929688 -400.8689880371094,164.4980010986328 -387.2449951171875,157.98300170898438 C-373.6199951171875,151.46800231933594 -362.1159973144531,141.23599243164062 -354.0610046386719,128.46800231933594 C-346.0050048828125,115.69999694824219 -341.72601318359375,100.91600036621094 -341.7179870605469,85.8219985961914 C-341.7120056152344,81.8239974975586 -342.00299072265625,77.83100128173828 -342.5880126953125,73.8759994506836 C-331.4700012207031,62.564998626708984 -324.0350036621094,51.880001068115234 -321.6929931640625,43.013999938964844 C-320.22100830078125,37.56800079345703 -320.62200927734375,32.85200119018555 -322.8590087890625,28.98900032043457z M-421.8179931640625,12.736000061035156 C-404.9110107421875,12.755999565124512 -388.531005859375,18.621000289916992 -375.4580078125,29.334999084472656 C-362.385009765625,40.04899978637695 -353.4230041503906,54.952999114990234 -350.0929870605469,71.51799774169922 C-364.1719970703125,85.16999816894531 -383.875,99.77799987792969 -406.24200439453125,112.62000274658203 C-430.0190124511719,126.27200317382812 -452.22100830078125,135.4600067138672 -470.33099365234375,140.46299743652344 C-481.4159851074219,130.6219940185547 -489.24700927734375,117.64600372314453 -492.78399658203125,103.25499725341797 C-496.3210144042969,88.86499786376953 -495.3970031738281,73.73999786376953 -490.135009765625,59.887001037597656 C-484.87298583984375,46.03300094604492 -475.5220031738281,34.10499954223633 -463.3210144042969,25.68400001525879 C-451.1199951171875,17.26300048828125 -436.64599609375,12.748000144958496 -421.8179931640625,12.736000061035156z M-514.760009765625,139.1580047607422 C-518.4600219726562,132.80599975585938 -512.583984375,120.36399841308594 -499.3059997558594,106.04299926757812 C-495.70599365234375,119.8219985961914 -488.4930114746094,132.39100646972656 -478.4100036621094,142.4550018310547 C-497.68701171875,146.7270050048828 -511.08599853515625,145.49200439453125 -514.760009765625,139.1580047607422z M-421.8179931640625,158.9080047607422 C-436.76800537109375,158.92300415039062 -451.3599853515625,154.33599853515625 -463.6090087890625,145.77000427246094 C-444.82000732421875,140.0449981689453 -423.7070007324219,130.65699768066406 -402.79400634765625,118.65899658203125 C-381.6809997558594,106.52999877929688 -363.0830078125,93.0260009765625 -348.96099853515625,79.99299621582031 C-348.80499267578125,81.91500091552734 -348.70001220703125,83.85600280761719 -348.70001220703125,85.8219985961914 C-348.7229919433594,105.19599914550781 -356.4339904785156,123.7699966430664 -370.1400146484375,137.47000122070312 C-383.84698486328125,151.17100524902344 -402.4309997558594,158.88099670410156 -421.8179931640625,158.9080047607422z M-328.41400146484375,41.2130012512207 C-330.2690124511719,48.17399978637695 -335.8840026855469,56.56999969482422 -344.3030090332031,65.62799835205078 C-347.9259948730469,51.81700134277344 -355.1759948730469,39.224998474121094 -365.3039855957031,29.15399932861328 C-346.2799987792969,24.959999084472656 -332.57598876953125,26.143999099731445 -328.8840026855469,32.48699951171875 C-327.6130065917969,34.6879997253418 -327.447998046875,37.619998931884766 -328.41400146484375,41.2130012512207z"></path>
                <path stroke-linecap="butt" stroke-linejoin="miter" fill-opacity="0"
                    stroke-miterlimit="4" stroke="rgb(130,82,221)" stroke-opacity="1"
                    stroke-width="7"
                    d=" M-322.8590087890625,28.98900032043457 C-328.718994140625,18.913000106811523 -346.0010070800781,16.98200035095215 -371.6159973144531,23.506999969482422 C-384.177001953125,13.406000137329102 -399.4949951171875,7.328000068664551 -415.5679931640625,6.067999839782715 C-431.6419982910156,4.808000087738037 -447.72100830078125,8.425000190734863 -461.7049865722656,16.44499969482422 C-475.68798828125,24.46500015258789 -486.92401123046875,36.51499938964844 -493.9429931640625,51.02000045776367 C-500.9630126953125,65.52400207519531 -503.43798828125,81.80799865722656 -501.0469970703125,97.74199676513672 C-519.6619873046875,116.61399841308594 -526.6790161132812,132.5449981689453 -520.7930297851562,142.65499877929688 C-517.197021484375,148.8419952392578 -509.4750061035156,151.9739990234375 -498.1570129394531,151.9739990234375 C-490.9169921875,151.843994140625 -483.7120056152344,150.93099975585938 -476.66900634765625,149.25100708007812 C-475.15399169921875,148.91099548339844 -473.60400390625,148.53700256347656 -472.0369873046875,148.13699340820312 C-460.2699890136719,157.60000610351562 -446.0660095214844,163.54600524902344 -431.06298828125,165.28799438476562 C-416.05999755859375,167.02999877929688 -400.8689880371094,164.4980010986328 -387.2449951171875,157.98300170898438 C-373.6199951171875,151.46800231933594 -362.1159973144531,141.23599243164062 -354.0610046386719,128.46800231933594 C-346.0050048828125,115.69999694824219 -341.72601318359375,100.91600036621094 -341.7179870605469,85.8219985961914 C-341.7120056152344,81.8239974975586 -342.00299072265625,77.83100128173828 -342.5880126953125,73.8759994506836 C-331.4700012207031,62.564998626708984 -324.0350036621094,51.880001068115234 -321.6929931640625,43.013999938964844 C-320.22100830078125,37.56800079345703 -320.62200927734375,32.85200119018555 -322.8590087890625,28.98900032043457z M-421.8179931640625,12.736000061035156 C-404.9110107421875,12.755999565124512 -388.531005859375,18.621000289916992 -375.4580078125,29.334999084472656 C-362.385009765625,40.04899978637695 -353.4230041503906,54.952999114990234 -350.0929870605469,71.51799774169922 C-364.1719970703125,85.16999816894531 -383.875,99.77799987792969 -406.24200439453125,112.62000274658203 C-430.0190124511719,126.27200317382812 -452.22100830078125,135.4600067138672 -470.33099365234375,140.46299743652344 C-481.4159851074219,130.6219940185547 -489.24700927734375,117.64600372314453 -492.78399658203125,103.25499725341797 C-496.3210144042969,88.86499786376953 -495.3970031738281,73.73999786376953 -490.135009765625,59.887001037597656 C-484.87298583984375,46.03300094604492 -475.5220031738281,34.10499954223633 -463.3210144042969,25.68400001525879 C-451.1199951171875,17.26300048828125 -436.64599609375,12.748000144958496 -421.8179931640625,12.736000061035156z M-514.760009765625,139.1580047607422 C-518.4600219726562,132.80599975585938 -512.583984375,120.36399841308594 -499.3059997558594,106.04299926757812 C-495.70599365234375,119.8219985961914 -488.4930114746094,132.39100646972656 -478.4100036621094,142.4550018310547 C-497.68701171875,146.7270050048828 -511.08599853515625,145.49200439453125 -514.760009765625,139.1580047607422z M-421.8179931640625,158.9080047607422 C-436.76800537109375,158.92300415039062 -451.3599853515625,154.33599853515625 -463.6090087890625,145.77000427246094 C-444.82000732421875,140.0449981689453 -423.7070007324219,130.65699768066406 -402.79400634765625,118.65899658203125 C-381.6809997558594,106.52999877929688 -363.0830078125,93.0260009765625 -348.96099853515625,79.99299621582031 C-348.80499267578125,81.91500091552734 -348.70001220703125,83.85600280761719 -348.70001220703125,85.8219985961914 C-348.7229919433594,105.19599914550781 -356.4339904785156,123.7699966430664 -370.1400146484375,137.47000122070312 C-383.84698486328125,151.17100524902344 -402.4309997558594,158.88099670410156 -421.8179931640625,158.9080047607422z M-328.41400146484375,41.2130012512207 C-330.2690124511719,48.17399978637695 -335.8840026855469,56.56999969482422 -344.3030090332031,65.62799835205078 C-347.9259948730469,51.81700134277344 -355.1759948730469,39.224998474121094 -365.3039855957031,29.15399932861328 C-346.2799987792969,24.959999084472656 -332.57598876953125,26.143999099731445 -328.8840026855469,32.48699951171875 C-327.6130065917969,34.6879997253418 -327.447998046875,37.619998931884766 -328.41400146484375,41.2130012512207z"></path>
            </g>
        </g>
        <g
            transform="matrix(0.289945513010025,-0.005621666554361582,0.005621666554361582,0.289945513010025,-42.70680236816406,129.94427490234375)"
            opacity="1" style="display: block;">
            <g opacity="1" transform="matrix(1,0,0,1,681.52197265625,12.807999610900879)">
                <path fill="rgb(255,163,16)" fill-opacity="1"
                    d=" M191.23599243164062,-123.63200378417969 C182.04600524902344,-134.2169952392578 170.3260040283203,-141.5659942626953 157.0659942626953,-145.89500427246094 C153.41600036621094,-147.0749969482422 149.64599609375,-147.92999267578125 145.8459930419922,-148.67799377441406 C147.61599731445312,-152.52099609375 148.18600463867188,-156.99899291992188 149.0260009765625,-161.38600158691406 C150.45599365234375,-168.86000061035156 152.78599548339844,-176.33399963378906 147.5959930419922,-183.01400756835938 C144.96600341796875,-186.38900756835938 141.13600158691406,-188.02699279785156 137.0760040283203,-188.80299377441406 C137.0760040283203,-188.80299377441406 84.33599853515625,-198.89300537109375 84.33599853515625,-198.89300537109375 C84.33599853515625,-198.89300537109375 -80.54100036621094,-230.4340057373047 -80.54100036621094,-230.4340057373047 C-90.56300354003906,-232.3509979248047 -101.86499786376953,-236.63299560546875 -110.1449966430664,-228.31100463867188 C-113.43599700927734,-225.00900268554688 -113.91699981689453,-219.8780059814453 -114.7490005493164,-215.5279998779297 C-114.7490005493164,-215.5279998779297 -117.1500015258789,-202.97799682617188 -117.1500015258789,-202.97799682617188 C-117.3949966430664,-201.6959991455078 -117.45099639892578,-200.39599609375 -117.37000274658203,-199.10800170898438 C-122.1989974975586,-199.9550018310547 -127.04900360107422,-200.593994140625 -131.9029998779297,-200.8090057373047 C-177.23699951171875,-202.79400634765625 -214.09800720214844,-162.12899780273438 -208.36000061035156,-117.27999877929688 C-204.77699279785156,-89.36299896240234 -184.5780029296875,-65.39700317382812 -157.9290008544922,-56.715999603271484 C-144.53900146484375,-52.362998962402344 -130.04600524902344,-50.55400085449219 -116.14399719238281,-48.06800079345703 C-113.94100189208984,-38.62699890136719 -110.55999755859375,-29.40399932861328 -106.0719985961914,-20.624000549316406 C-96.28900146484375,-1.4459999799728394 -81.11000061035156,13.906999588012695 -63.06399917602539,24.45199966430664 C-64.98300170898438,33.374000549316406 -67.4000015258789,42.68299865722656 -64.87200164794922,51.53099822998047 C-63.222999572753906,57.31999969482422 -59.36600112915039,61.834999084472656 -54.55699920654297,65.00900268554688 C-54.55699920654297,65.00900268554688 -61.38600158691406,100.70600128173828 -61.38600158691406,100.70600128173828 C-61.38600158691406,100.70600128173828 -94.36799621582031,94.39600372314453 -94.36799621582031,94.39600372314453 C-99.83399963378906,93.35099792480469 -105.09600067138672,91.84300231933594 -110.51100158691406,94.16000366210938 C-116.72599792480469,96.82599639892578 -118.86799621582031,102.58300018310547 -120.0270004272461,108.64399719238281 C-120.0270004272461,108.64399719238281 -127.76300048828125,149.08099365234375 -127.76300048828125,149.08099365234375 C-127.76300048828125,149.08099365234375 -130.34500122070312,162.57899475097656 -130.34500122070312,162.57899475097656 C-136.43299865722656,163.07200622558594 -142.11700439453125,166.18600463867188 -145.62600708007812,171.43099975585938 C-149.15699768066406,176.6909942626953 -150.58700561523438,184.97500610351562 -150.9459991455078,191.28500366210938 C-151.2209930419922,197.05299377441406 -146.7270050048828,200.76499938964844 -141.48500061035156,201.76800537109375 C-141.48500061035156,201.76800537109375 -77.23100280761719,214.0590057373047 -77.23100280761719,214.0590057373047 C-77.23100280761719,214.0590057373047 6.355000019073486,230.0500030517578 6.355000019073486,230.0500030517578 C6.355000019073486,230.0500030517578 21.84600067138672,233.01199340820312 21.84600067138672,233.01199340820312 C32.49599838256836,235.0500030517578 33.88600158691406,223.6750030517578 35.29600143432617,216.2570037841797 C37.20600128173828,206.29100036621094 33.875999450683594,197.19400024414062 24.72599983215332,192.16600036621094 C24.68600082397461,192.14100646972656 24.6560001373291,192.13299560546875 24.615999221801758,192.10800170898438 C24.615999221801758,192.10800170898438 35.555999755859375,134.93600463867188 35.555999755859375,134.93600463867188 C37.305999755859375,125.78900146484375 30.756000518798828,118.29299926757812 22.09600067138672,116.63600158691406 C22.09600067138672,116.63600158691406 4.695000171661377,113.30699920654297 4.695000171661377,113.30699920654297 C4.695000171661377,113.30699920654297 -16.64900016784668,109.2239990234375 -16.64900016784668,109.2239990234375 C-16.64900016784668,109.2239990234375 -9.840999603271484,73.63899993896484 -9.840999603271484,73.63899993896484 C-4.676000118255615,72.43000030517578 0.07100000232458115,69.6760025024414 3.924999952316284,65.75 C10.355999946594238,59.2140007019043 11.586000442504883,48.481998443603516 13.026000022888184,39.314998626708984 C43.63600158691406,34.492000579833984 71.30599975585938,16.545000076293945 89.24600219726562,-8.815999984741211 C89.24600219726562,-8.815999984741211 119.69599914550781,-2.990999937057495 119.69599914550781,-2.990999937057495 C138.55599975585938,0.6159999966621399 157.2259979248047,-2.305999994277954 173.80599975585938,-12.086999893188477 C212.7259979248047,-35.05099868774414 220.48599243164062,-89.88099670410156 191.2259979248047,-123.63400268554688 C191.2259979248047,-123.63400268554688 191.23599243164062,-123.63200378417969 191.23599243164062,-123.63200378417969z M110.49600219726562,-67.65299987792969 C110.49600219726562,-67.65299987792969 117.16600036621094,-102.51300048828125 117.16600036621094,-102.51300048828125 C117.16600036621094,-102.51300048828125 119.0260009765625,-112.25499725341797 119.0260009765625,-112.25499725341797 C119.0260009765625,-112.25499725341797 141.55599975585938,-107.94400024414062 141.55599975585938,-107.94400024414062 C159.64599609375,-104.48400115966797 171.2760009765625,-86.97699737548828 168.13600158691406,-68.97899627685547 C165.00599670410156,-50.98099899291992 146.6959991455078,-39.20000076293945 129.05599975585938,-42.57500076293945 C129.05599975585938,-42.57500076293945 106.35600280761719,-46.917999267578125 106.35600280761719,-46.917999267578125 C107.98600006103516,-53.755001068115234 109.16600036621094,-60.73699951171875 110.49600219726562,-67.65299987792969z M-102.56199645996094,-218.35800170898438 C-101.43399810791016,-224.2519989013672 -93.90299987792969,-221.30799865722656 -89.9990005493164,-220.56100463867188 C-89.9990005493164,-220.56100463867188 -23.385000228881836,-207.8179931640625 -23.385000228881836,-207.8179931640625 C-23.385000228881836,-207.8179931640625 130.87600708007812,-178.30799865722656 130.87600708007812,-178.30799865722656 C135.62600708007812,-177.3979949951172 140.3459930419922,-177.1699981689453 139.1060028076172,-170.6999969482422 C139.1060028076172,-170.6999969482422 136.01600646972656,-154.52499389648438 136.01600646972656,-154.52499389648438 C135.55599975585938,-152.10800170898438 133.5959930419922,-151.32699584960938 131.156005859375,-151.30999755859375 C131.156005859375,-151.30999755859375 121.00599670410156,-153.2519989013672 121.00599670410156,-153.2519989013672 C121.00599670410156,-153.2519989013672 92.91600036621094,-158.62600708007812 92.91600036621094,-158.62600708007812 C92.91600036621094,-158.62600708007812 -12.12600040435791,-178.7209930419922 -12.12600040435791,-178.7209930419922 C-12.12600040435791,-178.7209930419922 -64.7750015258789,-188.79299926757812 -64.7750015258789,-188.79299926757812 C-64.7750015258789,-188.79299926757812 -92.44000244140625,-194.0850067138672 -92.44000244140625,-194.0850067138672 C-92.44000244140625,-194.0850067138672 -94.59700012207031,-194.4980010986328 -94.59700012207031,-194.4980010986328 C-97.38500213623047,-195.03199768066406 -100.18199920654297,-195.62399291992188 -102.99700164794922,-196.2209930419922 C-105.01399993896484,-197.1649932861328 -106.3550033569336,-198.61700439453125 -105.9000015258789,-200.9969940185547 C-104.7750015258789,-206.77499389648438 -103.66799926757812,-212.57699584960938 -102.56199645996094,-218.35800170898438z M-118.04900360107422,-89.8479995727539 C-118.04900360107422,-89.8479995727539 -140.97300720214844,-94.23300170898438 -140.97300720214844,-94.23300170898438 C-159.13699340820312,-97.70800018310547 -170.8990020751953,-115.10600280761719 -167.75799560546875,-133.23800659179688 C-164.6230010986328,-151.23599243164062 -146.2969970703125,-163.01300048828125 -128.6719970703125,-159.64199829101562 C-128.6719970703125,-159.64199829101562 -105.71199798583984,-155.24899291992188 -105.71199798583984,-155.24899291992188 C-105.71199798583984,-155.24899291992188 -111.1780014038086,-126.6729965209961 -111.1780014038086,-126.6729965209961 C-111.1780014038086,-126.6729965209961 -117.1780014038086,-95.30899810791016 -117.1780014038086,-95.30899810791016 C-117.50800323486328,-93.48400115966797 -117.7969970703125,-91.66899871826172 -118.04900360107422,-89.8479995727539z M-144.5279998779297,-65.1760025024414 C-162.72900390625,-68.65799713134766 -178.0449981689453,-78.25700378417969 -188.10000610351562,-93.99800109863281 C-199.69000244140625,-112.09600067138672 -200.3560028076172,-135.4080047607422 -191.11700439453125,-154.58900451660156 C-182.03500366210938,-173.45399475097656 -163.2030029296875,-186.36700439453125 -142.5760040283203,-189.01300048828125 C-130.19000244140625,-190.593994140625 -117.59400177001953,-187.5290069580078 -105.36599731445312,-184.95799255371094 C-103.67400360107422,-184.53799438476562 -101.93000030517578,-184.18499755859375 -100.20099639892578,-183.85499572753906 C-100.20099639892578,-183.85499572753906 -103.51599884033203,-166.52699279785156 -103.51599884033203,-166.52699279785156 C-112.48500061035156,-168.39700317382812 -121.52799987792969,-170.4929962158203 -130.59800720214844,-171.43800354003906 C-153.13800048828125,-173.8040008544922 -173.4219970703125,-158.3350067138672 -178.70199584960938,-136.67999267578125 C-183.9929962158203,-115.06700134277344 -170.677001953125,-92.18800354003906 -150.031005859375,-84.86499786376953 C-140.2310028076172,-81.39099884033203 -129.40199279785156,-80.07099914550781 -119.04399871826172,-78.3010025024414 C-119.26399993896484,-72.21499633789062 -118.99800109863281,-66.1510009765625 -118.26100158691406,-60.13199996948242 C-127.01399993896484,-61.82600021362305 -135.77099609375,-63.500999450683594 -144.5279998779297,-65.1760025024414z M-43.74399948120117,69.56199645996094 C-40.2400016784668,70.38600158691406 -36.56100082397461,70.8010025024414 -33.084999084472656,71.46600341796875 C-33.084999084472656,71.46600341796875 -21.520000457763672,73.67900085449219 -21.520000457763672,73.67900085449219 C-21.520000457763672,73.67900085449219 -27.91200065612793,107.08799743652344 -27.91200065612793,107.08799743652344 C-27.91200065612793,107.08799743652344 -50.111000061035156,102.84100341796875 -50.111000061035156,102.84100341796875 C-50.111000061035156,102.84100341796875 -43.74399948120117,69.56199645996094 -43.74399948120117,69.56199645996094z M22.775999069213867,220.8350067138672 C22.775999069213867,220.8350067138672 22.645999908447266,221.5229949951172 22.645999908447266,221.5229949951172 C22.645999908447266,221.5229949951172 21.305999755859375,221.26699829101562 21.305999755859375,221.26699829101562 C21.305999755859375,221.26699829101562 -4.593999862670898,216.31300354003906 -4.593999862670898,216.31300354003906 C-4.593999862670898,216.31300354003906 -92.90699768066406,199.41799926757812 -92.90699768066406,199.41799926757812 C-92.90699768066406,199.41799926757812 -128.4739990234375,192.61399841308594 -128.4739990234375,192.61399841308594 C-128.4739990234375,192.61399841308594 -138.23500061035156,190.7469940185547 -138.23500061035156,190.7469940185547 C-138.23500061035156,190.7469940185547 -139.31300354003906,190.54100036621094 -139.31300354003906,190.54100036621094 C-139.31300354003906,190.54100036621094 -139.03500366210938,189.08999633789062 -139.03500366210938,189.08999633789062 C-137.76600646972656,182.4530029296875 -136.6929931640625,172.21299743652344 -127.0999984741211,174.04800415039062 C-127.0999984741211,174.04800415039062 -122.06199645996094,175.01199340820312 -122.06199645996094,175.01199340820312 C-122.06199645996094,175.01199340820312 -92.40699768066406,180.68499755859375 -92.40699768066406,180.68499755859375 C-92.40699768066406,180.68499755859375 -90.73400115966797,181.0050048828125 -90.73400115966797,181.0050048828125 C-90.73400115966797,181.0050048828125 -17.70400047302246,194.9759979248047 -17.70400047302246,194.9759979248047 C-17.70400047302246,194.9759979248047 17.416000366210938,201.69400024414062 17.416000366210938,201.69400024414062 C27.166000366210938,204.0030059814453 24.125999450683594,213.78900146484375 22.775999069213867,220.8350067138672z M-17.885000228881836,149.4759979248047 C-14.640000343322754,150.34800720214844 -15.616999626159668,153.43699645996094 -16.07200050354004,155.81700134277344 C-16.07200050354004,155.81700134277344 -18.454999923706055,168.2729949951172 -18.454999923706055,168.2729949951172 C-18.454999923706055,168.2729949951172 -21.201000213623047,182.62600708007812 -21.201000213623047,182.62600708007812 C-21.201000213623047,182.62600708007812 -84.65499877929688,170.48699951171875 -84.65499877929688,170.48699951171875 C-84.65499877929688,170.48699951171875 -80.7239990234375,149.9429931640625 -80.7239990234375,149.9429931640625 C-80.7239990234375,149.9429931640625 -78.97100067138672,140.77699279785156 -78.97100067138672,140.77699279785156 C-78.2770004272461,137.15199279785156 -73.86100006103516,138.7480010986328 -71.48200225830078,139.20399475097656 C-53.61800003051758,142.63999938964844 -35.75299835205078,146.05799865722656 -17.885000228881836,149.4759979248047z M20.246000289916992,127.94000244140625 C24.715999603271484,128.79400634765625 24.426000595092773,132.18899536132812 23.766000747680664,135.66600036621094 C23.766000747680664,135.66600036621094 20.465999603271484,152.8820037841797 20.465999603271484,152.8820037841797 C20.465999603271484,152.8820037841797 13.505999565124512,189.28500366210938 13.505999565124512,189.28500366210938 C13.505999565124512,189.28500366210938 -9.956000328063965,184.79600524902344 -9.956000328063965,184.79600524902344 C-9.956000328063965,184.79600524902344 -6.185999870300293,165.08900451660156 -6.185999870300293,165.08900451660156 C-6.185999870300293,165.08900451660156 -4.297999858856201,155.2169952392578 -4.297999858856201,155.2169952392578 C-2.8359999656677246,147.5760040283203 -7.460000038146973,141.12100219726562 -14.35200023651123,138.66600036621094 C-14.781000137329102,138.48800659179688 -15.232000350952148,138.32400512695312 -15.732999801635742,138.22799682617188 C-16.027000427246094,138.1529998779297 -16.305999755859375,138.10000610351562 -16.589000701904297,138.06500244140625 C-16.589000701904297,138.06500244140625 -71.48999786376953,127.56199645996094 -71.48999786376953,127.56199645996094 C-77.30899810791016,126.4489974975586 -82.13800048828125,127.51000213623047 -86.63600158691406,131.58299255371094 C-90.12899780273438,134.7310028076172 -90.53099822998047,140.35800170898438 -91.36399841308594,144.70899963378906 C-91.36399841308594,144.70899963378906 -95.88800048828125,168.35800170898438 -95.88800048828125,168.35800170898438 C-95.88800048828125,168.35800170898438 -117.4729995727539,164.22900390625 -117.4729995727539,164.22900390625 C-117.4729995727539,164.22900390625 -118.9229965209961,163.95199584960938 -118.9229965209961,163.95199584960938 C-118.9229965209961,163.95199584960938 -108.11799621582031,107.47000122070312 -108.11799621582031,107.47000122070312 C-107.08999633789062,102.09700012207031 -99.12799835205078,105.1050033569336 -95.78199768066406,105.74500274658203 C-95.78199768066406,105.74500274658203 -73.73200225830078,109.96299743652344 -73.73200225830078,109.96299743652344 C-73.73200225830078,109.96299743652344 -46.643001556396484,115.1449966430664 -46.643001556396484,115.1449966430664 C-46.643001556396484,115.1449966430664 20.246000289916992,127.94000244140625 20.246000289916992,127.94000244140625z M-2.6059999465942383,55.40399932861328 C-8.121000289916992,66.20099639892578 -20.815000534057617,62.1349983215332 -29.999000549316406,60.37799835205078 C-39.96500015258789,58.47100067138672 -51.097999572753906,58.0369987487793 -54.39899826049805,46.479000091552734 C-55.49300003051758,42.62699890136719 -53.891998291015625,37.78799819946289 -53.15999984741211,33.95800018310547 C-53.15999984741211,33.95800018310547 -52.39099884033203,29.941999435424805 -52.39099884033203,29.941999435424805 C-37.74599838256836,36.597999572753906 -21.670000076293945,40.308998107910156 -5.307000160217285,40.60599899291992 C-3.0980000495910645,40.64400100708008 -0.8930000066757202,40.60300064086914 1.3040000200271606,40.50299835205078 C0.5419999957084656,45.69499969482422 -0.36000001430511475,51.01499938964844 -2.6059999465942383,55.40399932861328z M26.986000061035156,24.138999938964844 C0.23999999463558197,33.071998596191406 -29.371000289916992,29.797000885009766 -54.1150016784668,16.60300064086914 C-74.81900024414062,5.550000190734863 -91.06500244140625,-13.090999603271484 -100.04100036621094,-34.678001403808594 C-108.19100189208984,-54.23699951171875 -109.33899688720703,-75.23300170898438 -105.38400268554688,-95.90599822998047 C-105.38400268554688,-95.90599822998047 -88.95600128173828,-181.78199768066406 -88.95600128173828,-181.78199768066406 C-88.95600128173828,-181.78199768066406 -66.90599822998047,-177.56399536132812 -66.90599822998047,-177.56399536132812 C-66.90599822998047,-177.56399536132812 38.13600158691406,-157.468994140625 38.13600158691406,-157.468994140625 C38.13600158691406,-157.468994140625 90.78600311279297,-147.39700317382812 90.78600311279297,-147.39700317382812 C90.78600311279297,-147.39700317382812 113.26599884033203,-143.0970001220703 113.26599884033203,-143.0970001220703 C113.26599884033203,-143.0970001220703 106.06600189208984,-105.48600006103516 106.06600189208984,-105.48600006103516 C106.06600189208984,-105.48600006103516 99.40599822998047,-70.6449966430664 99.40599822998047,-70.6449966430664 C97.6760025024414,-61.590999603271484 96.22599792480469,-52.404998779296875 93.64600372314453,-43.551998138427734 C90.81600189208984,-34.39899826049805 86.6760025024414,-25.767000198364258 81.56600189208984,-17.687000274658203 C68.69599914550781,2.111999988555908 49.25600051879883,16.701000213623047 26.986000061035156,24.138999938964844z M178.17599487304688,-29.636999130249023 C163.67599487304688,-15.605999946594238 142.51600646972656,-10.267999649047852 122.95600128173828,-14.010000228881836 C122.95600128173828,-14.010000228881836 95.69599914550781,-19.224000930786133 95.69599914550781,-19.224000930786133 C98.57599639892578,-24.570999145507812 100.98600006103516,-30.12299919128418 103.0260009765625,-35.84199905395508 C112.2959976196289,-33.933998107910156 121.6259994506836,-31.725000381469727 130.99600219726562,-30.742000579833984 C153.53599548339844,-28.375999450683594 173.8159942626953,-43.845001220703125 179.0959930419922,-65.5 C184.38600158691406,-87.11299896240234 171.0659942626953,-109.9739990234375 150.42599487304688,-117.31500244140625 C141.16600036621094,-120.60800170898438 130.9759979248047,-121.9219970703125 121.1760025024414,-123.56600189208984 C121.1760025024414,-123.56600189208984 124.47599792480469,-140.82000732421875 124.47599792480469,-140.82000732421875 C126.5459976196289,-140.38400268554688 128.67599487304688,-140.01600646972656 130.75599670410156,-139.90699768066406 C140.13600158691406,-138.36300659179688 149.656005859375,-136.7729949951172 158.33599853515625,-133.3780059814453 C177.75599670410156,-125.78900146484375 192.48599243164062,-108.19000244140625 196.67599487304688,-87.76899719238281 C201.0760040283203,-66.44100189208984 193.68600463867188,-44.650001525878906 178.17599487304688,-29.636999130249023z"></path>
            </g>
        </g>
        <g
            transform="matrix(0.289945513010025,-0.005621666554361582,0.005621666554361582,0.289945513010025,154.32545471191406,107.996826171875)"
            opacity="1" style="display: block;">
            <path fill="rgb(255,163,16)" fill-opacity="1"
                d=" M2.9639999866485596,-52.387001037597656 C5.3520002365112305,-56.60100173950195 11.737000465393066,-55.297000885009766 12.277000427246094,-50.48400115966797 C12.277000427246094,-50.48400115966797 15.777000427246094,-19.570999145507812 15.777000427246094,-19.570999145507812 C16.027000427246094,-17.417999267578125 17.62700080871582,-15.666999816894531 19.746999740600586,-15.234000205993652 C19.746999740600586,-15.234000205993652 50.22700119018555,-9.006999969482422 50.22700119018555,-9.006999969482422 C54.97700119018555,-8.038000106811523 55.707000732421875,-1.562000036239624 51.297000885009766,0.4429999887943268 C51.297000885009766,0.4429999887943268 22.976999282836914,13.321999549865723 22.976999282836914,13.321999549865723 C21.006999969482422,14.218999862670898 19.836999893188477,16.283000946044922 20.07699966430664,18.434999465942383 C20.07699966430664,18.434999465942383 23.57699966430664,49.3489990234375 23.57699966430664,49.3489990234375 C24.117000579833984,54.1609992980957 18.187000274658203,56.85900115966797 14.916999816894531,53.2859992980957 C14.916999816894531,53.2859992980957 -6.081999778747559,30.332000732421875 -6.081999778747559,30.332000732421875 C-7.544000148773193,28.733999252319336 -9.869000434875488,28.259000778198242 -11.840999603271484,29.155000686645508 C-11.840999603271484,29.155000686645508 -40.15999984741211,42.034000396728516 -40.15999984741211,42.034000396728516 C-44.569000244140625,44.03900146484375 -48.96799850463867,39.23099899291992 -46.58000183105469,35.016998291015625 C-46.58000183105469,35.016998291015625 -31.23900032043457,7.952000141143799 -31.23900032043457,7.952000141143799 C-30.170000076293945,6.067999839782715 -30.437000274658203,3.7100000381469727 -31.89900016784668,2.111999988555908 C-31.89900016784668,2.111999988555908 -52.89899826049805,-20.841999053955078 -52.89899826049805,-20.841999053955078 C-56.167999267578125,-24.416000366210938 -52.95500183105469,-30.084999084472656 -48.20899963378906,-29.115999221801758 C-48.20899963378906,-29.115999221801758 -17.72800064086914,-22.888999938964844 -17.72800064086914,-22.888999938964844 C-15.605999946594238,-22.45599937438965 -13.446000099182129,-23.437999725341797 -12.378000259399414,-25.32200050354004 C-12.378000259399414,-25.32200050354004 2.9639999866485596,-52.387001037597656 2.9639999866485596,-52.387001037597656z"></path>
            <g opacity="1" transform="matrix(1,0,0,1,0,0)">
                <path stroke-linecap="butt" stroke-linejoin="miter" fill-opacity="0"
                    stroke-miterlimit="4" stroke="rgb(255,163,16)" stroke-opacity="1"
                    stroke-width="0"
                    d=" M2.9639999866485596,-52.387001037597656 C5.3520002365112305,-56.60100173950195 11.737000465393066,-55.297000885009766 12.277000427246094,-50.48400115966797 C12.277000427246094,-50.48400115966797 15.777000427246094,-19.570999145507812 15.777000427246094,-19.570999145507812 C16.027000427246094,-17.417999267578125 17.62700080871582,-15.666999816894531 19.746999740600586,-15.234000205993652 C19.746999740600586,-15.234000205993652 50.22700119018555,-9.006999969482422 50.22700119018555,-9.006999969482422 C54.97700119018555,-8.038000106811523 55.707000732421875,-1.562000036239624 51.297000885009766,0.4429999887943268 C51.297000885009766,0.4429999887943268 22.976999282836914,13.321999549865723 22.976999282836914,13.321999549865723 C21.006999969482422,14.218999862670898 19.836999893188477,16.283000946044922 20.07699966430664,18.434999465942383 C20.07699966430664,18.434999465942383 23.57699966430664,49.3489990234375 23.57699966430664,49.3489990234375 C24.117000579833984,54.1609992980957 18.187000274658203,56.85900115966797 14.916999816894531,53.2859992980957 C14.916999816894531,53.2859992980957 -6.081999778747559,30.332000732421875 -6.081999778747559,30.332000732421875 C-7.544000148773193,28.733999252319336 -9.869000434875488,28.259000778198242 -11.840999603271484,29.155000686645508 C-11.840999603271484,29.155000686645508 -40.15999984741211,42.034000396728516 -40.15999984741211,42.034000396728516 C-44.569000244140625,44.03900146484375 -48.96799850463867,39.23099899291992 -46.58000183105469,35.016998291015625 C-46.58000183105469,35.016998291015625 -31.23900032043457,7.952000141143799 -31.23900032043457,7.952000141143799 C-30.170000076293945,6.067999839782715 -30.437000274658203,3.7100000381469727 -31.89900016784668,2.111999988555908 C-31.89900016784668,2.111999988555908 -52.89899826049805,-20.841999053955078 -52.89899826049805,-20.841999053955078 C-56.167999267578125,-24.416000366210938 -52.95500183105469,-30.084999084472656 -48.20899963378906,-29.115999221801758 C-48.20899963378906,-29.115999221801758 -17.72800064086914,-22.888999938964844 -17.72800064086914,-22.888999938964844 C-15.605999946594238,-22.45599937438965 -13.446000099182129,-23.437999725341797 -12.378000259399414,-25.32200050354004 C-12.378000259399414,-25.32200050354004 2.9639999866485596,-52.387001037597656 2.9639999866485596,-52.387001037597656z"></path>
            </g>
        </g>
        <g
            transform="matrix(-0.015353422611951828,0.05800234526395798,-0.05800234526395798,-0.015353422611951828,244.30799865722656,74.05799865722656)"
            opacity="1" style="display: block;">
            <g opacity="1" transform="matrix(1,0,0,1,0,0)">
                <path fill="rgb(242,0,87)" fill-opacity="1"
                    d=" M369.41400146484375,-98.05500030517578 C399.8169860839844,-99.57499694824219 423.3800048828125,-90.4540023803711 440.1050109863281,-70.69100189208984 C456.8299865722656,-52.448001861572266 465.18499755859375,-29.645000457763672 465.18499755859375,-2.2809998989105225 C465.18499755859375,25.08300018310547 456.8299865722656,48.645999908447266 440.1050109863281,68.40899658203125 C423.3800048828125,88.1719970703125 399.8169860839844,97.29299926757812 369.41400146484375,95.77300262451172 C369.41400146484375,95.77300262451172 145.94200134277344,84.37200164794922 145.94200134277344,84.37200164794922 C145.94200134277344,84.37200164794922 269.0790100097656,269.0799865722656 269.0790100097656,269.0799865722656 C279.7229919433594,285.7980041503906 285.03900146484375,302.5220031738281 285.03900146484375,319.24700927734375 C285.03900146484375,345.08599853515625 273.64300537109375,367.8909912109375 250.83799743652344,387.656005859375 C229.55599975585938,405.89801025390625 205.23399353027344,415.0190124511719 177.86700439453125,415.0190124511719 C142.90199279785156,415.0190124511719 117.05799865722656,399.0589904785156 100.33599853515625,367.13299560546875 C100.33599853515625,367.13299560546875 0.0010000000474974513,168.74400329589844 0.0010000000474974513,168.74400329589844 C0.0010000000474974513,168.74400329589844 -100.33300018310547,367.13299560546875 -100.33300018310547,367.13299560546875 C-118.57599639892578,400.57598876953125 -144.4199981689453,417.3009948730469 -177.86500549316406,417.3009948730469 C-205.22900390625,417.3009948730469 -230.31199645996094,408.17999267578125 -253.11500549316406,389.93798828125 C-274.39801025390625,370.1730041503906 -285.0400085449219,347.3680114746094 -285.0400085449219,321.52301025390625 C-285.0400085449219,303.281005859375 -279.7200012207031,286.56298828125 -269.0780029296875,271.3550109863281 C-269.0780029296875,271.3550109863281 -145.94000244140625,84.37200164794922 -145.94000244140625,84.37200164794922 C-145.94000244140625,84.37200164794922 -369.4119873046875,95.77300262451172 -369.4119873046875,95.77300262451172 C-399.8169860839844,97.29299926757812 -423.3800048828125,88.93199920654297 -440.10198974609375,70.69000244140625 C-456.8240051269531,50.926998138427734 -465.18499755859375,27.36400032043457 -465.18499755859375,0 C-465.18499755859375,-27.36400032043457 -456.8240051269531,-50.928001403808594 -440.10198974609375,-70.69100189208984 C-423.3800048828125,-90.4540023803711 -399.8169860839844,-99.57499694824219 -369.4119873046875,-98.05500030517578 C-369.4119873046875,-98.05500030517578 -145.94000244140625,-86.65299987792969 -145.94000244140625,-86.65299987792969 C-145.94000244140625,-86.65299987792969 -269.0780029296875,-271.3590087890625 -269.0780029296875,-271.3590087890625 C-279.7200012207031,-286.56201171875 -285.0400085449219,-303.28399658203125 -285.0400085449219,-321.5270080566406 C-285.0400085449219,-347.3699951171875 -274.39801025390625,-369.4129943847656 -253.11500549316406,-387.656005859375 C-230.31199645996094,-405.89898681640625 -205.22900390625,-415.0199890136719 -177.86500549316406,-415.0199890136719 C-142.8990020751953,-415.0199890136719 -117.05599975585938,-399.0580139160156 -100.33300018310547,-367.13299560546875 C-100.33300018310547,-367.13299560546875 0.0010000000474974513,-168.74400329589844 0.0010000000474974513,-168.74400329589844 C0.0010000000474974513,-168.74400329589844 100.33599853515625,-367.13299560546875 100.33599853515625,-367.13299560546875 C117.05799865722656,-400.5780029296875 143.66200256347656,-417.3009948730469 180.14700317382812,-417.3009948730469 C205.9929962158203,-417.3009948730469 229.55599975585938,-407.41900634765625 250.83799743652344,-387.656005859375 C273.64300537109375,-369.4129943847656 285.03900146484375,-347.3699951171875 285.03900146484375,-321.5270080566406 C285.03900146484375,-303.28399658203125 279.7229919433594,-286.56201171875 269.0790100097656,-271.3590087890625 C269.0790100097656,-271.3590087890625 145.94200134277344,-86.65299987792969 145.94200134277344,-86.65299987792969 C145.94200134277344,-86.65299987792969 369.41400146484375,-98.05500030517578 369.41400146484375,-98.05500030517578z"></path>
            </g>
        </g>
    </g>
</svg>